<svg xmlns="http://www.w3.org/2000/svg" x="0px" y="0px" width="100" height="100" viewBox="0 0 64 64">
<path d="M 16 2 C 14.906937 2 14 2.9069372 14 4 L 12.222656 4 C 9.902207 4 8 5.9022069 8 8.2226562 L 8 55.849609 A 1.0351561 1.0351561 0 0 0 7.9648438 56.117188 C 7.9648438 58.268459 9.7315419 60.035156 11.882812 60.035156 L 53.351562 60.035156 C 54.821261 60.035156 56.035156 58.821261 56.035156 57.351562 L 56.035156 10.648438 C 56.035156 9.1787389 54.821261 7.9648436 53.351562 7.9648438 L 52 7.9648438 L 52 6.984375 C 52 5.348229 50.651771 4 49.015625 4 L 30 4 C 30 2.9069372 29.093063 2 28 2 L 16 2 z M 16 4 L 28 4 L 28 42.054688 L 23.160156 38.595703 C 22.468568 38.10342 21.531432 38.10342 20.839844 38.595703 L 16 42.054688 L 16 5.2246094 A 1.0001 1.0001 0 0 0 16 4.7792969 L 16 4 z M 12.222656 6 L 14 6 L 14 42.0625 L 14 42.064453 C 14.002 42.473778 14.130286 42.877025 14.371094 43.214844 C 15.005187 44.103759 16.27015 44.31844 17.160156 43.685547 L 17.160156 43.683594 L 22 40.224609 L 26.837891 43.683594 C 27.176029 43.925121 27.58028 44.052697 27.990234 44.054688 C 29.08382 44.06062 29.994069 43.157725 30 42.066406 L 30 42.0625 L 30 6 L 49.015625 6 C 49.571479 6 50 6.428521 50 6.984375 L 50 45.998047 A 1.0001 1.0001 0 0 0 49.925781 45.996094 A 1.0001 1.0001 0 0 0 48.941406 47.011719 L 48.941406 49.011719 A 1.0001 1.0001 0 0 0 50 50.023438 L 50 51.015625 C 50 51.571479 49.571479 52 49.015625 52 L 41 52 L 12.617188 52 L 12 52 C 11.257342 52 10.598131 52.261659 10 52.619141 L 10 50.025391 A 1.0001 1.0001 0 0 0 10.994141 49.011719 L 10.994141 47.011719 A 1.0001 1.0001 0 0 0 10 45.996094 L 10 8.2226562 C 10 6.9831058 10.983106 6 12.222656 6 z M 52 10.035156 L 53.351562 10.035156 C 53.703865 10.035156 53.964844 10.296135 53.964844 10.648438 L 53.964844 57.351562 C 53.964844 57.703865 53.703865 57.964844 53.351562 57.964844 L 11.882812 57.964844 C 10.850084 57.964844 10.035156 57.149915 10.035156 56.117188 A 1.0351561 1.0351561 0 0 0 10.009766 55.898438 C 10.06261 54.831386 10.918213 54 12 54 L 12.617188 54 L 41 54 L 49.015625 54 C 50.651771 54 52 52.651771 52 51.015625 L 52 10.035156 z M 33 20 C 32.448 20 32 20.448 32 21 C 32 21.552 32.448 22 33 22 L 43 22 C 43.552 22 44 21.552 44 21 C 44 20.448 43.552 20 43 20 L 33 20 z M 33 24 C 32.448 24 32 24.448 32 25 C 32 25.552 32.448 26 33 26 L 37 26 C 37.552 26 38 25.552 38 25 C 38 24.448 37.552 24 37 24 L 33 24 z M 33 28 C 32.448 28 32 28.448 32 29 C 32 29.552 32.448 30 33 30 L 40 30 C 40.552 30 41 29.552 41 29 C 41 28.448 40.552 28 40 28 L 33 28 z"></path>
</svg>