<svg xmlns="http://www.w3.org/2000/svg" x="0px" y="0px" width="100" height="100" viewBox="0,0,256,256">
<g fill="#ffffff" fill-rule="nonzero" stroke="none" stroke-width="1" stroke-linecap="butt" stroke-linejoin="miter" stroke-miterlimit="10" stroke-dasharray="" stroke-dashoffset="0" font-family="none" font-weight="none" font-size="none" text-anchor="none" style="mix-blend-mode: normal"><g transform="scale(10.66667,10.66667)"><path d="M6,2c-1.105,0 -2,0.895 -2,2v15c0,1.64497 1.35503,3 3,3h12c0.36064,0.0051 0.69608,-0.18438 0.87789,-0.49587c0.18181,-0.3115 0.18181,-0.69676 0,-1.00825c-0.18181,-0.3115 -0.51725,-0.50097 -0.87789,-0.49587h-12c-0.56503,0 -1,-0.43497 -1,-1c0,-0.56503 0.43497,-1 1,-1h12c0.29504,0.00368 0.57665,-0.1231 0.76947,-0.34644c0.19283,-0.22333 0.27719,-0.52042 0.23053,-0.81177v-13.8418c0,-0.552 -0.448,-1 -1,-1h-3v10l-3,-2l-3,2v-10z"></path></g></g>
</svg>